<?xml version="1.0" standalone="no"?><!DOCTYPE svg PUBLIC "-//W3C//DTD SVG 1.1//EN" "http://www.w3.org/Graphics/SVG/1.1/DTD/svg11.dtd"><svg t="1544522874357" class="icon" style="" viewBox="0 0 1024 1024" version="1.1" xmlns="http://www.w3.org/2000/svg" p-id="9887" xmlns:xlink="http://www.w3.org/1999/xlink" width="16" height="16"><defs><style type="text/css"></style></defs><path d="M712 219.2c12.4 0 22.4-10 22.4-22.4v-89.5c0-12.4-10-22.4-22.4-22.4-12.4 0-22.4 10-22.4 22.4v89.5c0 12.3 10 22.4 22.4 22.4zM312 219.2c12.4 0 22.4-10 22.4-22.4v-89.5c0-12.4-10-22.4-22.4-22.4-12.4 0-22.4 10-22.4 22.4v89.5c0 12.3 10 22.4 22.4 22.4z" fill="#13227a" p-id="9888"></path><path d="M915.2 131.4h-112c-12.4 0-22.4 10-22.4 22.4 0 12.4 10 22.4 22.4 22.4h112v147.2H108.8V176.2h112c12.4 0 22.4-10 22.4-22.4 0-12.4-10-22.4-22.4-22.4h-112c-24.7 0-44.8 20.1-44.8 44.8v671.6c0 24.7 20.1 44.8 44.8 44.8h806.4c24.7 0 44.8-20.1 44.8-44.8V176.2c0-24.7-20.1-44.8-44.8-44.8zM108.8 847.8V368.2h806.4v479.7H108.8z" fill="#13227a" p-id="9889"></path><path d="M400 176.2h224c12.4 0 22.4-10 22.4-22.4 0-12.4-10-22.4-22.4-22.4H400c-12.4 0-22.4 10-22.4 22.4 0 12.3 10 22.4 22.4 22.4zM778 656H666c-13.2 0-24-10.8-24-24V520c0-13.2 10.8-24 24-24h112c13.2 0 24 10.8 24 24v112c0 13.2-10.8 24-24 24z" fill="#13227a" p-id="9890"></path></svg>